<mxfile host="app.diagrams.net" modified="2023-04-26T08:14:01.406Z" agent="Mozilla/5.0 (Windows NT 10.0; Win64; x64) AppleWebKit/537.36 (KHTML, like Gecko) Chrome/100.0.4896.75 Safari/537.36" version="21.2.1" etag="YJQs8WkNEzEbfIBg2ydM" type="github">
  <diagram name="第 1 页" id="9qxlo9gosLiqR3wZDc3j">
    <mxGraphModel>
      <root>
        <mxCell id="0" />
        <mxCell id="1" parent="0" />
      </root>
    </mxGraphModel>
  </diagram>
</mxfile>
